<svg width="169" height="41" viewBox="0 0 169 41" fill="none" xmlns="http://www.w3.org/2000/svg">
<g clip-path="url(#clip0_358_331)">
<path fill-rule="evenodd" clip-rule="evenodd" d="M10.0148 2.71875V40.2188H0V2.71875H10.0148Z" fill="#976E72"/>
<path fill-rule="evenodd" clip-rule="evenodd" d="M15.0222 2.71875H36.3037C43.2175 2.71875 48.8222 8.31519 48.8222 15.2188C48.8222 22.1224 43.2175 27.7188 36.3037 27.7188H25.037V40.2188H15.0222V2.71875ZM25.037 17.7188H36.3037C37.6865 17.7188 38.8074 16.5995 38.8074 15.2188C38.8074 13.838 37.6865 12.7188 36.3037 12.7188H25.037V17.7188Z" fill="#976E72"/>
<path fill-rule="evenodd" clip-rule="evenodd" d="M86.3778 2.71875V22.0938C86.3778 26.5811 90.0208 30.2188 94.5148 30.2188C99.0088 30.2188 102.652 26.5811 102.652 22.0938V2.71875H112.667V22.0938C112.667 32.104 104.54 40.2188 94.5148 40.2188C84.4898 40.2188 76.363 32.104 76.363 22.0938V2.71875H86.3778Z" fill="#976E72"/>
<path fill-rule="evenodd" clip-rule="evenodd" d="M52.5778 20.2188C52.5778 10.5538 60.4244 2.71875 70.1037 2.71875H72.6074V12.7188H70.1037C65.9554 12.7188 62.5926 16.0767 62.5926 20.2188V21.4688C62.5926 31.8241 54.1855 40.2188 43.8148 40.2188H42.563V30.2188H43.8148C48.6545 30.2188 52.5778 26.3013 52.5778 21.4688V20.2188Z" fill="#976E72"/>
<path d="M169 3.96875C169 6.03982 167.319 7.71875 165.244 7.71875C163.17 7.71875 161.489 6.03982 161.489 3.96875C161.489 1.89768 163.17 0.21875 165.244 0.21875C167.319 0.21875 169 1.89768 169 3.96875Z" fill="#976E72"/>
<path d="M169 3.96875C169 6.03982 167.319 7.71875 165.244 7.71875C163.17 7.71875 161.489 6.03982 161.489 3.96875C161.489 1.89768 163.17 0.21875 165.244 0.21875C167.319 0.21875 169 1.89768 169 3.96875Z" fill="white" fill-opacity="0.2"/>
<path d="M123.42 40.2186L128.199 20.2367L131.752 32.2579C133.87 39.4277 144.041 39.4277 146.16 32.2579L149.712 20.2367L154.491 40.2186H164.787L157.273 8.79812C155.486 1.32607 144.941 1.04942 142.763 8.41754L138.956 21.3019L135.148 8.41755C132.971 1.04946 122.425 1.32603 120.638 8.79811L113.124 40.2186H123.42Z" fill="#976E72"/>
</g>
<defs>
<clipPath id="clip0_358_331">
<rect width="169" height="40" fill="white" transform="translate(0 0.21875)"/>
</clipPath>
</defs>
</svg>
